<svg width="400" height="258" viewBox="0 0 400 258" fill="none" xmlns="http://www.w3.org/2000/svg">
<rect width="400" height="258" fill="#F5F5F5"/>
<g id="Desktop - 132">
<rect width="2816" height="1024" transform="translate(-2334 -304)" fill="white"/>
<g id="xA2yVA01 1">
<g id="Group">
<path id="Vector" d="M347.822 28.7575C347.689 28.8908 347.556 29.6908 347.556 30.4908C347.556 32.1797 347.022 32.713 346.222 31.7797C345.733 31.2019 345.556 31.2464 344.622 32.1352C344.044 32.6686 343.556 33.3797 343.556 33.7352C343.556 34.0908 343.289 34.713 342.978 35.0686C342.044 36.1797 341.289 41.6464 341.511 45.5575C341.644 47.513 341.867 51.6908 342 54.8908C342.267 60.3575 343.2 65.513 344.044 66.0464C344.267 66.1797 344.444 66.5797 344.444 66.9352C344.444 67.8241 341.6 67.7352 337.644 66.8019L334.533 66.0464L332.356 68.4019C328.978 72.0908 329.333 74.8908 333.556 76.9797C334.311 77.3352 336.711 77.7797 338.933 77.913L342.978 78.1797L344.489 76.6241C346.133 74.9352 347.289 74.7575 350.222 75.7797C354.133 77.1575 359.289 76.313 366.444 73.113C367.556 72.5797 369.2 72.0908 373.689 70.8464C374.622 70.5797 373.822 69.7797 372.622 69.7797C372.044 69.7797 370.8 69.113 369.822 68.1797L368.044 66.6241L364.533 66.8908C361.2 67.2019 361.022 67.1575 360.4 66.1797C359.422 64.6686 358.222 59.1575 358.222 56.4019C358.222 54.1352 357.511 51.3352 356.133 48.1352C354.622 44.5797 354.178 43.6019 352.711 40.4464C351.2 37.1575 348.889 30.5352 348.889 29.4686C348.889 28.8019 348.222 28.3575 347.822 28.7575Z" fill="#FE9F44"/>
<path id="Vector_2" d="M234.978 63.9555C233.955 65.7332 234 71.8221 235.111 77.3332C237.911 91.3777 238.755 93.7332 241.733 95.6888C242.755 96.3555 243.555 97.0666 243.555 97.2444C243.511 99.1555 237.911 101.289 232.533 101.378C226.578 101.511 225.644 102.267 228.089 104.933C230.666 107.733 235.244 109.422 237.155 108.311C237.689 108.044 239.2 106.889 240.489 105.822L242.889 103.911L245.822 104.178C250.355 104.622 253.066 103.467 257.955 98.9777C258.755 98.311 259.822 97.7777 260.533 97.7777C262.355 97.7777 262.355 97.1555 260.533 95.3777C258.978 93.8221 258.8 93.7332 256.8 93.9999C254.978 94.2666 254.666 94.1777 254.666 93.5555C254.666 92.311 255.955 90.311 256.978 89.9999C259.155 89.3332 259.555 88.5332 259.555 84.8888C259.555 81.1555 259.333 80.5777 258.266 81.4666C257.866 81.8221 256.844 82.3555 256 82.6666C255.155 83.0221 253.733 83.8221 252.889 84.4444C252.044 85.111 251.066 85.7777 250.755 85.9555C250 86.3999 248.889 85.4666 248.889 84.3555C248.889 82.9777 246.133 77.9999 242 71.911C240.8 70.1332 239.644 68.3555 239.422 67.9999C238.355 65.8666 236.489 62.8888 236.133 62.7999C235.911 62.711 235.422 63.2444 234.978 63.9555Z" fill="#FE9F44"/>
<path id="Vector_3" d="M312.622 103.645C311.467 105.911 311.155 110.489 311.867 114.711C312.978 121.423 313.778 124.8 314.978 127.556C317.244 132.756 318.311 135.6 318.089 135.867C317.911 136 316.667 136.534 315.244 136.978C313.378 137.645 312.089 137.778 310.4 137.556C308.667 137.334 308 137.423 307.6 137.956C306.667 139.067 307.378 140.623 309.378 141.911C311.555 143.378 315.467 143.556 317.955 142.356C319.378 141.689 319.689 141.689 321.422 142.311C322.489 142.711 324.578 143.334 326.044 143.778L328.8 144.578L333.155 143.156C335.6 142.356 338.267 141.467 339.111 141.111C339.955 140.8 341.022 140.4 341.511 140.267C342.267 140 342.267 139.911 341.644 139.2C341.289 138.8 340.889 138.045 340.8 137.556C340.711 137.023 340.089 136.489 339.244 136.223C337.022 135.467 336.978 135.156 338.933 133.423C340.578 131.956 340.844 131.423 341.289 128.845C341.955 124.978 341.911 124.445 341.067 124.445C340.667 124.445 339.067 125.467 337.467 126.711C334.4 129.111 330.755 131.2 330.489 130.756C330.4 130.578 330.222 129.689 330.044 128.8C329.467 125.645 328.044 123.156 322.044 114.889C319.155 110.934 319.067 110.711 316.889 106.4C315.378 103.334 314.489 102.223 313.511 102.223C313.422 102.223 313.022 102.845 312.622 103.645Z" fill="#FE9F44"/>
<path id="Vector_4" d="M210.667 138.4C210.667 138.756 211.111 139.6 211.689 140.311C212.267 140.978 213.511 142.711 214.4 144.134C215.333 145.511 216.444 146.934 216.844 147.245C219.2 148.978 224.889 156.534 224.889 157.911C224.889 158.222 225.422 158.934 226 159.511C227.467 160.889 227.422 161.245 225.467 162.045C223.733 162.8 221.689 162.489 218.089 160.978C216.578 160.356 216.355 160.356 215.733 160.978C214.622 162.045 214.267 164.578 214.889 166.4C215.955 169.511 217.822 170.8 221.911 171.289C224 171.556 224.8 171.467 226.355 170.711C228.355 169.734 232.089 168.889 234.4 168.889C237.244 168.889 239.022 168 241.689 165.334C243.955 163.067 244.578 162.667 245.955 162.667C247.244 162.667 247.555 162.489 247.555 161.778C247.555 161.2 247.111 160.711 246.444 160.445C245.822 160.222 245.111 159.511 244.889 158.889C244.355 157.511 244.178 157.511 241.422 158.889C238.8 160.222 238.578 160.222 237.689 159.2C236.978 158.4 235.555 152.889 235.555 150.934C235.555 150.222 235.022 149.422 233.911 148.534C232.4 147.422 225.644 143.911 222 142.445C221.289 142.134 218.755 140.978 216.444 139.822C212 137.689 210.667 137.334 210.667 138.4Z" fill="#FE9F44"/>
<path id="Vector_5" d="M164.089 145.244C162.844 145.822 162.311 145.866 160.667 145.422C158.267 144.8 156.311 144.755 154.489 145.288C148.889 146.933 147.644 147.377 146.755 147.911C145.955 148.444 144.711 148.533 140.667 148.266C134.133 147.866 133.6 148.133 133.911 151.244C134.222 154.488 135.111 155.111 139.733 155.111C142.267 155.111 143.644 154.888 144.267 154.444C145.511 153.511 147.867 153.6 148.4 154.622C148.667 155.066 150.267 156.844 151.955 158.533C155.111 161.688 156 163.155 156 165.155C156 165.777 156.311 166.888 156.711 167.688C158.089 170.311 161.422 175.111 161.867 175.111C162.133 175.111 163.067 175.688 164 176.444C164.933 177.155 166.089 177.777 166.578 177.777C167.422 177.777 167.467 177.511 167.244 168.977C167.022 158.711 166.533 153.422 165.555 151.6C164.889 150.311 164.933 150.266 166.355 149.511C167.111 149.111 168.489 148.666 169.333 148.488C171.244 148.133 171.467 147.2 170.044 145.644C168.711 144.222 166.444 144.088 164.089 145.244Z" fill="#FE9F44"/>
<path id="Vector_6" d="M131.778 180.669C131.644 181.291 131.422 182.313 131.289 182.98L131.022 184.224L130.222 183.158C129.467 182.091 129.422 182.091 128.978 182.936C128.711 183.424 128.533 184.224 128.578 184.669C128.667 185.336 128.4 185.558 127.556 185.558C126.711 185.558 126.4 185.824 126.311 186.669C126.222 187.291 125.911 188.091 125.6 188.447C125.067 189.113 125.022 196.402 125.511 200.669C125.644 201.647 125.867 204.624 126.044 207.247C126.267 210.713 126.533 212.136 126.933 212.313C127.289 212.447 127.556 212.802 127.556 213.158C127.556 214.447 125.467 213.691 122.933 211.513L120.311 209.291L119.022 210.536C115.822 213.558 113.956 219.558 115.333 222.224C116.444 224.358 120.311 227.113 122.178 227.113C122.756 227.113 123.956 226.047 125.6 223.958C127.689 221.336 128.267 220.847 129.067 221.113C129.556 221.291 131.289 221.691 132.889 222.047C136.489 222.891 140.044 222.313 143.244 220.402C144.4 219.691 145.822 219.113 146.356 219.113C146.933 219.113 147.778 218.802 148.267 218.447C148.711 218.091 149.556 217.78 150.089 217.78C151.778 217.78 151.778 216.802 150.089 215.247C148.578 213.913 148.222 213.78 145.6 213.78C143.467 213.78 142.489 213.558 141.733 212.936C140.711 212.136 140.667 211.78 140.622 206.58C140.533 202.091 140.356 200.669 139.556 198.669C139.022 197.336 138.444 195.736 138.267 195.113C138.044 194.491 137.156 192.447 136.267 190.58C134.489 186.758 133.556 184.136 133.111 181.647C132.711 179.602 132.089 179.113 131.778 180.669Z" fill="#FE9F44"/>
<path id="Vector_7" d="M69.111 182.178C68.7999 182.755 71.0665 186.044 73.5999 188.711C74.711 189.911 76.311 192.044 77.1999 193.466C78.4887 195.6 78.6665 196.133 78.1776 196.711C77.7776 197.2 77.1554 197.333 76.1332 197.155C75.3332 197.022 73.9999 196.755 73.1554 196.622C71.4221 196.311 70.9332 197.066 71.3776 199.378C71.8665 202.133 76.1332 204 78.3999 202.533C78.9776 202.133 80.8443 201.689 82.5332 201.511C85.4665 201.244 87.9999 200 89.0221 198.355C89.1999 198.044 89.8665 197.778 90.4443 197.778C92.0443 197.778 92.1332 197.155 90.711 195.822C89.6443 194.8 89.2887 194.711 88.2665 195.111C86.6665 195.689 86.3999 195.689 85.5999 194.844C85.1554 194.444 84.8887 193.378 84.8887 192.133C84.8887 190.4 84.6665 189.911 83.2443 188.622C82.3554 187.778 81.4221 187.111 81.1999 187.111C80.711 187.111 77.3332 185.6 72.7554 183.289C69.3332 181.6 69.4665 181.644 69.111 182.178Z" fill="#FE9F44"/>
<path id="Vector_8" d="M32.711 219.068C32.4444 219.468 33.4666 225.912 34.2666 229.112C34.5332 230.09 34.9777 231.868 35.2888 233.112C35.5555 234.312 36.0444 235.779 36.3555 236.312C36.8444 237.156 36.7555 237.379 35.5999 238.179C34.7555 238.801 33.5999 239.112 32.311 239.112C30.0444 239.112 29.511 239.556 30.1777 240.845C30.6221 241.645 30.6666 241.645 32.311 240.845C33.7777 240.134 34.3999 240.09 36.8888 240.49C43.3777 241.512 43.3332 241.512 45.5999 240.312C46.7999 239.69 48.1777 239.068 48.6221 238.934C49.4221 238.668 49.3777 238.579 48.311 237.423C46.9777 236.045 46.8444 235.556 47.6888 235.556C48.9332 235.512 49.4221 234.801 49.111 233.379C48.7555 231.645 48.1777 231.645 45.9555 233.334C45.0221 234.045 44.0888 234.668 43.9555 234.668C43.5555 234.668 43.111 233.468 42.6221 230.979C42.1777 228.623 41.911 228.223 37.511 223.29C35.8221 221.423 34.2666 219.645 34.0888 219.29C33.6888 218.579 33.0666 218.49 32.711 219.068Z" fill="#FE9F44"/>
</g>
</g>
</g>
</svg>
