<svg width="400" height="400" viewBox="0 0 400 400" fill="none" xmlns="http://www.w3.org/2000/svg">
<rect width="400" height="400" fill="#F5F5F5"/>
<g id="Desktop - 132">
<rect width="2816" height="1024" transform="translate(-2350 -546)" fill="white"/>
<g id="8y64l001 (1) 1">
<g id="Group">
<path id="Vector" d="M331.067 58.2654C329.733 60.3987 327.6 62.7987 326.267 63.8654C324.933 64.7987 324.133 66.532 324.533 67.4654C324.933 68.6654 324.533 69.332 323.6 69.0654C322.8 68.932 320.667 69.4654 319.067 70.3987C316.8 71.5987 316 73.332 316 76.6654C316 80.7987 316.4 81.332 319.6 81.332C321.6 81.332 325.6 80.132 328.667 78.6654C333.2 76.532 334.4 75.0654 335.6 70.3987C337.067 64.2654 336.533 54.6654 334.533 54.6654C333.867 54.6654 332.4 56.2654 331.067 58.2654ZM333.333 64.6654C333.333 65.0654 332.4 67.4654 331.333 69.9987C329.733 74.132 325.2 77.332 321.2 77.332C318.667 77.332 320.133 74.532 323.333 73.332C325.2 72.6654 327.067 70.932 327.6 69.732C328.667 66.532 330.8 63.9987 332.133 63.9987C332.8 63.9987 333.333 64.2654 333.333 64.6654Z" fill="#FE9F44"/>
<path id="Vector_2" d="M123.467 86.9324C123.067 88.6658 122.4 93.7324 122 98.3991C121.333 105.599 121.467 106.799 123.6 107.599C125.733 108.399 125.6 108.666 122.8 109.332C117.867 110.399 115.733 117.999 118.667 123.332C121.6 128.666 124.8 129.066 129.467 124.532L133.2 120.932L132.4 125.999C131.733 129.866 132 130.932 133.333 130.399C136.533 129.332 140.4 123.066 140.533 118.799C140.667 116.532 141.067 114.666 141.6 114.666C142.933 114.666 152.133 97.1991 151.6 95.5991C151.333 94.7991 148.4 96.7991 145.067 100.266C141.733 103.599 138.4 105.999 137.733 105.466C137.067 105.066 135.733 101.999 134.667 98.7991C132.533 92.1324 128.133 85.1991 125.733 84.3991C124.8 83.9991 123.867 85.1991 123.467 86.9324ZM137.2 109.599C139.067 110.666 139.467 111.866 138.667 113.866C138 115.466 137.2 117.732 136.8 119.199C136.133 121.199 135.6 121.332 133.867 119.999C132.267 118.532 131.2 118.799 128.133 121.066C125.333 123.066 124 123.466 122.8 122.266C120.4 119.866 121.067 115.332 124.667 111.999C127.067 109.732 127.6 108.399 126.533 107.199C125.733 106.266 125.6 102.799 126.133 98.3991L127.067 91.3324L130.933 99.5991C132.933 104.266 135.867 108.666 137.2 109.599Z" fill="#FE9F44"/>
<path id="Vector_3" d="M272.533 90.8013C272.133 91.6013 272.4 92.9346 273.2 93.7346C274 94.5346 274.667 96.268 274.667 97.468C274.667 98.8013 275.467 100.135 276.4 100.401C277.733 100.935 277.733 101.201 276.4 101.201C274.533 101.335 274 106.935 275.6 108.401C276 108.935 278 108.401 279.867 107.201C283.067 105.068 283.333 105.068 285.067 107.735C286.133 109.335 287.733 110.668 288.8 110.668C290.8 110.668 292.533 106.001 291.333 104.001C290.933 103.335 291.2 102.668 292 102.668C293.6 102.668 298.533 97.468 298.667 95.6013C298.667 94.1346 292.133 94.5346 288.933 96.268C284.4 98.8013 282.8 98.668 282 95.868C280.933 92.5346 273.867 88.8013 272.533 90.8013Z" fill="#FE9F44"/>
<path id="Vector_4" d="M219.467 93.9993C214.8 98.9326 212.933 105.733 213.6 114.133C214.133 121.066 214.133 121.199 211.733 119.066C210.4 117.866 209.333 117.599 209.333 118.399C209.333 119.199 210 120.266 210.667 120.666C213.467 122.399 211.867 123.866 208.533 122.666C200.8 119.733 188 123.199 183.6 129.466C180.933 133.199 181.733 134.666 186.4 134.666C188.4 134.666 192.4 135.866 195.333 137.333L200.533 139.999L204 136.533L207.333 133.066L203.2 133.866C200.533 134.533 197.333 133.866 193.6 132.266L188 129.733L192.933 127.733C196 126.666 200.8 125.999 204.8 126.266C214.533 127.066 216.933 124.266 217.6 111.466C217.867 105.733 218.8 100.799 219.867 99.4659C221.6 97.3326 222 97.7326 224.133 103.466C225.733 107.733 226.133 110.399 225.333 111.999C224 114.399 227.2 118.666 230.4 118.666C231.2 118.666 232.933 120.133 234.133 122.133C237.333 126.799 235.2 128.399 228 126.799C224.933 126.133 221.467 125.866 220.533 126.266C218 127.199 216.8 132.399 217.867 137.999C218.533 141.599 218.267 142.933 216.667 143.466C214.133 144.533 208 140.666 208 137.999C208 135.066 205.733 135.599 204.933 138.666C203.467 144.133 217.067 151.333 221.067 147.333C222 146.399 222 139.199 221.067 133.066C220.4 129.066 220.533 128.266 222.267 128.933C223.467 129.466 223.733 129.999 222.8 130.533C222 131.066 225.067 131.466 229.467 131.333C235.067 131.333 237.867 130.799 238.667 129.333C240.667 126.266 240.267 123.333 237.467 120.133C236 118.399 234.533 116.399 234.267 115.599C234 114.666 232 114.133 229.867 114.266C226.667 114.533 226.4 114.399 228.4 113.199C231.2 111.599 231.333 108.266 228.8 104.533C227.733 103.066 226.667 99.4659 226.4 96.6659C225.867 90.2659 223.733 89.4659 219.467 93.9993Z" fill="#FE9F44"/>
<path id="Vector_5" d="M208.267 110.665C208.267 112.531 208.533 113.198 208.933 112.265C209.2 111.465 209.2 109.865 208.933 108.931C208.533 108.131 208.267 108.798 208.267 110.665Z" fill="#FE9F44"/>
<path id="Vector_6" d="M199.333 117.334C198.933 118.134 199.467 118.268 200.533 117.868C202.933 116.934 203.333 116.001 201.467 116.001C200.667 116.001 199.733 116.534 199.333 117.334Z" fill="#FE9F44"/>
<path id="Vector_7" d="M205.067 118.266C206 118.666 207.2 118.533 207.6 118.133C208.133 117.733 207.333 117.333 205.867 117.466C204.4 117.466 204 117.866 205.067 118.266Z" fill="#FE9F44"/>
<path id="Vector_8" d="M256.4 139.598C254.4 142.398 251.333 145.998 249.6 147.731C247.333 149.865 246.8 151.465 247.467 153.731C248.267 156.265 248.133 156.398 246.267 154.798C244.4 153.331 243.467 153.465 240.133 155.865C236.133 158.798 234.8 162.265 235.867 167.731C236.267 170.665 236.933 170.798 243.2 170.398C248.4 169.998 251.467 168.931 255.467 165.998C258.267 163.731 260.8 161.065 260.933 159.998C261.067 158.931 262.133 155.331 263.333 152.131C264.933 147.731 265.067 145.998 263.867 145.331C263.067 144.798 262.8 143.198 263.2 141.731C264.133 138.798 263.067 134.665 261.2 134.665C260.667 134.665 258.4 136.931 256.4 139.598ZM260 148.531C260 153.465 256.267 161.065 252.8 163.331C251.067 164.531 247.467 165.865 244.8 166.265C240.267 166.931 240 166.798 240 163.598C240 160.798 240.8 159.865 244.4 158.931C246.8 158.265 249.333 156.531 250.267 154.531C252.8 149.731 257.733 144.131 258.933 144.798C259.467 145.198 260 146.931 260 148.531Z" fill="#FE9F44"/>
<path id="Vector_9" d="M142.267 150.401C139.867 153.068 133.333 167.068 130.8 174.934C129.867 177.734 128.667 180.268 128 180.668C127.467 181.068 123.2 177.468 118.533 172.668C114 167.868 109.733 164.001 108.933 164.001C107.067 164.001 109.067 170.268 112.667 175.734C114.4 178.401 116.8 183.201 118 186.268C119.333 189.468 121.2 192.001 122.267 192.001C123.6 192.001 124 192.801 123.467 194.001C121.467 199.334 132.533 217.468 136.267 215.068C137.333 214.534 136.933 209.868 135.067 203.334C134.533 201.468 136 202.268 140.4 206.268C143.867 209.468 147.067 212.001 147.733 212.001C149.733 212.001 156 205.601 156 203.601C156 202.668 156.533 201.334 157.333 200.534C158.933 198.934 157.067 191.868 153.867 187.068C152.533 184.801 150.933 184.001 149.2 184.401C145.733 185.334 146 183.068 149.467 182.001C151.867 181.201 152.133 180.401 151.467 176.268C150.933 173.468 150.267 166.801 149.867 161.334C148.8 148.534 146.667 145.468 142.267 150.401ZM146.8 171.601C148.133 176.401 148 177.868 146.133 180.801C143.6 184.534 144.667 187.201 149.467 188.668C154.533 190.268 154 204.134 148.8 206.134C147.733 206.534 144.4 204.934 141.467 202.534C137.067 199.068 135.733 198.534 134.133 199.868C133.067 200.801 132 202.801 131.733 204.401C131.333 206.934 130.8 206.534 128.933 202.134C127.733 199.334 126.667 195.734 126.667 194.268C126.667 192.801 125.6 190.268 124.267 188.801C122.933 187.201 121.067 184.134 120.133 182.001L118.4 178.001L121.6 180.934C127.733 186.668 131.067 184.401 135.867 171.201C137.467 166.801 140.133 161.068 141.733 158.534L144.667 154.001L145.067 160.001C145.2 163.334 146 168.534 146.8 171.601Z" fill="#FE9F44"/>
<path id="Vector_10" d="M305.333 163.332L301.467 171.999L296.8 167.065C294.267 164.265 291.867 162.399 291.333 162.932C290.933 163.332 292.4 167.199 294.933 171.465C297.333 175.732 299.467 180.532 299.733 181.999C299.867 183.465 301.6 186.132 303.6 187.999L306.933 191.332L306.133 186.799L305.333 182.132L308.533 185.199C312.133 188.532 315.067 188.265 317.067 184.399C318.667 181.465 315.467 172.665 313.333 173.999C312.667 174.399 312 174.265 312 173.465C312 172.799 312.533 171.999 313.2 171.732C314 171.465 314.133 167.732 313.733 162.932C312.667 151.999 310.4 152.132 305.333 163.332ZM310.267 170.265C309.867 172.132 310.667 175.332 311.733 177.465C314.267 181.732 313.067 183.999 309.333 181.599C307.867 180.799 305.867 180.399 304.933 180.799C302.4 181.732 300.8 175.732 303.2 174.399C304.133 173.865 305.733 171.599 306.667 169.332C308.533 164.665 311.2 165.465 310.267 170.265Z" fill="#FE9F44"/>
<path id="Vector_11" d="M72.5335 177.332C69.4668 178.532 67.7335 181.599 68.6668 184.266C68.9335 185.199 69.4668 187.999 69.8668 190.266L70.4001 194.666L66.6668 192.666C61.6001 190.132 56.8001 190.132 54.5335 192.799C52.0001 195.866 56.8001 204.666 61.0668 204.532C63.7335 204.399 63.8668 204.666 62.0001 206.666C60.1335 208.666 60.1335 209.466 62.0001 213.732C63.0668 216.399 64.0001 219.866 64.0001 221.332C64.0001 224.666 66.9335 224.799 69.6001 221.599C73.6001 217.066 75.2001 212.532 75.3335 205.999V199.332L82.8001 199.732C90.9335 200.266 99.4668 197.466 100.933 193.866C101.867 191.466 99.3335 189.332 95.4668 189.332C94.0001 189.332 91.7335 188.266 90.4001 187.066C88.2668 185.066 87.4668 185.066 85.0668 186.532C82.6668 187.999 82.4001 187.999 83.0668 186.399C83.8668 184.132 83.2001 183.066 78.6668 179.199C76.2668 177.066 74.5335 176.532 72.5335 177.332ZM80.0001 187.466C80.9335 189.866 82.2668 190.666 85.0668 190.666C87.0668 190.666 90.0001 191.466 91.4668 192.532C93.8668 194.399 93.8668 194.532 90.2668 195.332C88.2668 195.866 84.5335 195.999 82.1335 195.599C75.6001 194.532 72.0001 197.466 72.0001 203.866C72.0001 209.199 69.7335 217.332 68.1335 217.332C66.5335 217.332 64.2668 209.599 64.9335 206.132C65.4668 203.332 64.9335 202.399 62.1335 201.332C60.2668 200.666 58.6668 199.866 58.6668 199.466C58.6668 199.199 58.2668 197.866 57.8668 196.666C57.0668 194.799 57.6001 194.532 61.0668 195.066C63.3335 195.466 65.7335 196.132 66.5335 196.532C69.2001 198.266 73.3335 192.266 73.3335 186.666C73.3335 181.599 73.4668 181.332 76.0001 182.666C77.6001 183.466 79.3335 185.599 80.0001 187.466Z" fill="#FE9F44"/>
<path id="Vector_12" d="M209.467 182.532C208.667 183.998 208.4 185.998 208.8 187.065C209.2 188.265 208.933 191.332 208.133 193.998C207.067 197.998 207.2 198.932 208.933 199.598C210.667 200.265 210.667 200.665 208.267 201.465C204.667 202.798 203.467 207.598 205.2 212.398C207.2 217.465 210.133 218.265 214.133 214.532L217.333 211.465L216.533 215.732C215.867 219.332 216 219.865 217.733 219.198C218.933 218.798 220.667 216.532 221.6 214.265C222.533 211.998 225.6 205.732 228.4 200.265C231.2 194.798 233.067 189.998 232.667 189.598C232.267 189.198 229.6 191.465 226.667 194.532L221.333 200.132L220 196.398C214.933 182.398 211.733 178.132 209.467 182.532ZM219.333 201.332C222 204.265 220.4 210.532 217.2 209.732C215.733 209.332 213.733 209.732 212.667 210.665C210.667 212.265 208 211.465 208 209.198C208 208.532 209.067 206.265 210.267 204.398C211.6 202.532 212.4 199.198 212.133 197.198C211.6 191.065 213.467 189.732 215.6 194.798C216.667 197.198 218.267 200.132 219.333 201.332Z" fill="#FE9F44"/>
<path id="Vector_13" d="M76 201.199C76 201.866 76.6667 202.932 77.3333 203.332C78.1333 203.732 78.6667 203.599 78.6667 202.799C78.6667 202.132 78.1333 201.066 77.3333 200.666C76.6667 200.266 76 200.399 76 201.199Z" fill="#FE9F44"/>
<path id="Vector_14" d="M81.0668 203.601C81.8668 203.867 83.4668 203.867 84.4001 203.601C85.2001 203.201 84.5335 202.934 82.6668 202.934C80.8001 202.934 80.1335 203.201 81.0668 203.601Z" fill="#FE9F44"/>
<path id="Vector_15" d="M259.467 211.601C260 212.935 260.667 216.535 261.067 219.601C261.467 223.735 262.133 225.335 263.733 225.335C265.333 225.335 265.2 225.868 262.933 227.468C260.533 229.068 260 230.668 260.267 234.401C260.533 238.401 261.2 239.468 263.733 239.735C265.733 240.001 268.133 239.068 270.133 237.201C272.4 235.068 273.333 234.801 273.333 236.135C273.333 237.735 273.6 237.601 274.667 236.001C275.733 234.401 276 234.668 276 237.335C276 241.335 279.467 246.668 282 246.668C282.933 246.668 285.2 244.801 286.8 242.535C289.067 239.201 289.467 237.868 288.267 236.001C287.067 234.135 287.333 233.868 290 234.401C292.133 234.801 293.333 234.135 293.867 232.401C294.267 231.068 296.533 228.801 298.933 227.468C302.8 225.068 302.933 224.801 300.667 223.201C297.067 220.535 288 220.935 283.067 224.001C279.2 226.268 278.933 226.268 279.467 224.268C280.133 222.135 280.133 222.135 278.267 224.268C276.533 226.401 276.267 226.135 274.8 221.335C273.067 215.468 266.267 209.335 261.333 209.335C259.067 209.335 258.667 209.868 259.467 211.601ZM271.333 222.535C273.067 226.135 275.733 229.468 277.067 229.868C278.4 230.268 281.733 229.468 284.667 228.001C287.6 226.535 290.667 225.335 291.733 225.335C294.667 225.335 292.8 228.401 288.533 230.668C285.867 232.135 284.533 234.135 284.267 236.801C283.6 242.935 281.733 243.468 279.467 238.135C277.067 232.268 274.4 231.068 269.6 233.468C267.6 234.401 265.6 235.468 265.067 235.735C263.067 236.668 264 231.601 266.133 229.201C267.733 227.468 267.867 226.268 266.8 224.135C264.933 220.801 264.933 216.001 266.667 216.001C267.333 216.001 269.467 218.935 271.333 222.535Z" fill="#FE9F44"/>
<path id="Vector_16" d="M276 217.199C276 217.999 276.533 218.932 277.333 219.332C278.133 219.732 278.267 219.199 277.867 218.132C276.933 215.732 276 215.332 276 217.199Z" fill="#FE9F44"/>
<path id="Vector_17" d="M171.467 230.532C170.933 231.199 171.2 233.066 171.733 234.799C172.4 236.532 172.4 240.399 171.6 243.732C170.533 249.199 170.667 249.999 173.467 252.266C175.2 253.732 176 254.532 175.067 254.132C172.133 252.532 169.467 254.932 167.467 260.932C163.867 271.332 169.733 275.599 179.867 269.999C184.267 267.466 185.067 267.332 184.4 269.066C184 270.799 184.267 270.799 185.867 268.799C187.867 266.266 188 266.666 188 273.599C188 285.599 194.267 288.799 201.6 280.666C205.6 276.399 206.267 272.266 203.733 269.332C202.667 268.266 203.467 268.399 205.6 269.732C209.2 271.999 209.333 271.999 214.267 267.332C216.933 264.799 220.267 262.666 221.467 262.666C222.667 262.666 224.4 261.866 225.2 260.799C227.6 257.999 221.333 253.732 213.467 252.666C208.267 251.999 205.467 252.399 200.667 254.532C193.067 257.866 192.533 257.999 194.667 255.332C195.6 254.132 196 252.932 195.467 252.399C195.067 251.866 193.733 252.666 192.667 254.132C190.8 256.532 190.8 256.532 190.667 253.332C190.667 246.666 187.867 240.266 182.933 234.932C178 229.599 173.067 227.732 171.467 230.532ZM180.667 238.266C183.867 241.866 185.467 245.466 187.2 253.599C187.733 255.599 189.467 258.266 191.2 259.332C194.133 261.332 194.933 261.332 199.333 259.466C204 257.466 218.667 256.399 218.667 258.132C218.667 259.866 209.867 265.999 207.333 266.132C203.067 266.132 201.333 267.866 201.333 271.599C201.333 278.532 192.133 283.732 191.867 276.932C191.467 264.932 187.067 261.199 178.667 265.999C170.133 270.932 167.2 264.266 174.933 257.332C178.933 253.599 179.067 253.332 176.933 250.932C175.2 249.066 174.933 247.066 175.6 241.599C176 237.732 176.533 234.666 176.8 234.666C177.067 234.666 178.8 236.266 180.667 238.266Z" fill="#FE9F44"/>
<path id="Vector_18" d="M192.8 244.666C193.867 249.599 194.667 250.666 194.667 247.199C194.667 245.866 194 243.733 193.333 242.666C192.267 241.199 192.133 241.733 192.8 244.666Z" fill="#FE9F44"/>
<path id="Vector_19" d="M199.467 250C198 251.067 197.333 252 198.133 252C198.8 252 200.533 251.067 201.867 250C203.333 248.933 204 248 203.2 248C202.533 248 200.8 248.933 199.467 250Z" fill="#FE9F44"/>
<path id="Vector_20" d="M108.533 252.935C107.2 254.935 104.133 258.801 101.6 261.468C98.8 264.535 97.6 266.668 98.5334 267.201C99.3334 267.735 100 268.801 100 269.735C100 270.801 99.6 270.801 98.4 269.601C96.1334 267.335 94.4 267.601 90.5334 271.068C87.7334 273.335 87.0667 275.201 87.2 279.335L87.3334 284.668H94.2667C99.8667 284.535 102.267 283.735 106.933 280.401C110.133 278.135 112.667 275.468 112.667 274.535C112.667 273.468 113.467 270.535 114.267 268.001C116.133 262.668 114.933 250.535 112.4 249.735C111.6 249.468 109.733 250.801 108.533 252.935ZM110.133 268.668C107.467 275.601 102.933 279.601 96.5334 280.801C90.6667 281.868 89.6 280.801 92.1334 276.268C93.4667 273.735 95.0667 272.801 97.0667 273.068C99.3334 273.335 100.533 272.535 101.733 269.735C102.533 267.735 104.8 264.001 106.667 261.601C109.733 257.335 110 257.335 111.2 259.868C112 261.735 111.733 264.535 110.133 268.668Z" fill="#FE9F44"/>
<path id="Vector_21" d="M115.733 276.934C116.667 277.334 117.867 277.201 118.267 276.801C118.8 276.401 118 276.001 116.533 276.134C115.067 276.134 114.667 276.534 115.733 276.934Z" fill="#FE9F44"/>
<path id="Vector_22" d="M249.6 283.601C246.533 288.135 241.333 300.401 241.333 303.068C241.333 306.535 237.867 304.801 231.2 298.135C226.267 293.335 224.533 292.268 224.267 294.001C224 295.201 225.2 298.401 226.933 301.068C228.667 303.735 230.933 308.001 231.867 310.268C232.933 312.668 234.4 314.668 235.2 314.668C236 314.668 236.667 316.668 236.8 319.201C236.933 324.401 240 329.868 244.133 332.135C246.933 333.601 247.067 333.468 246.133 328.001L245.2 322.268L250 326.401C255.333 331.201 256.933 330.935 260.933 324.668C263.467 320.801 263.733 319.601 262.4 315.735C260.533 309.868 258.667 307.735 256.4 308.535C254 309.468 254.267 308.001 256.933 306.001C258.933 304.535 258.933 303.601 257.467 298.668C256.533 295.601 256.267 291.468 256.667 289.335C257.467 285.468 255.6 280.001 253.333 280.001C252.667 280.001 251.067 281.601 249.6 283.601ZM253.067 305.868C251.733 309.335 251.867 309.868 255.067 312.268C259.067 315.201 260 321.335 256.667 324.001C255.067 325.335 254 324.935 250.533 322.135C246.667 318.935 246.133 318.801 244 320.668C241.467 322.935 240 322.135 240 318.268C240 316.935 238.667 314.001 237.2 311.735C234.267 307.735 234.267 307.735 237.067 308.535C238.933 309.201 240.667 308.535 242.533 306.535C244.133 304.801 245.333 302.935 245.333 302.268C245.333 301.735 246.667 298.001 248.267 294.268L251.333 287.335L252.933 294.668C254.267 300.268 254.267 302.935 253.067 305.868Z" fill="#FE9F44"/>
<path id="Vector_23" d="M321.867 286.268C320.667 288.401 318.4 290.801 316.933 291.868C315.2 293.068 314.667 294.534 315.2 296.801C316 299.734 315.867 299.868 313.6 298.534C311.467 297.201 310.267 297.468 306.8 299.868C299.2 305.334 302.533 312.001 312.667 312.001C314.4 312.001 316.267 312.668 316.8 313.601C317.467 314.668 317.067 314.801 315.467 314.268C314.133 313.734 313.467 313.868 314 314.668C314.4 315.334 313.867 317.468 312.667 319.201C311.467 321.068 310.667 323.868 310.933 325.601C311.2 328.134 312.133 328.668 316 328.801C321.733 328.934 325.333 327.334 325.467 324.268C325.467 322.401 325.733 322.401 326.533 324.534C327.333 326.534 328.933 327.201 334.133 327.334C337.733 327.468 341.467 327.734 342.533 328.134C343.6 328.401 344.8 327.601 345.067 326.268C345.867 322.401 334.667 312.001 329.6 312.001C324.4 312.001 323.333 309.068 326.667 303.601C329.6 298.934 330.267 289.468 328 285.201C326.133 281.734 324.8 282.001 321.867 286.268ZM323.333 302.668C320.267 309.468 322.267 314.001 329.2 316.134C332.267 317.068 335.6 318.801 336.8 320.268C338.933 322.534 338.8 322.668 333.6 322.668C330.667 322.668 327.733 322.001 327.333 321.201C326.667 320.268 325.733 320.534 324.267 321.868C322.933 322.934 320.4 324.268 318.4 324.668C314.133 325.734 313.467 323.468 316.667 319.201C320.533 314.134 317.867 309.334 310.4 307.468C308.267 307.068 306.667 306.001 306.667 305.334C306.667 304.668 308.267 303.734 310.4 303.334C315.733 302.134 317.867 300.801 318.667 297.868C319.067 296.534 320.533 294.001 322 292.268L324.667 289.201L325.067 293.468C325.333 295.868 324.533 300.001 323.333 302.668Z" fill="#FE9F44"/>
<path id="Vector_24" d="M55.0667 292.801C50.9334 297.468 48.8 305.868 50.8 309.601C53.0667 314.001 57.4667 318.668 59.4667 318.668C62.1334 318.668 64.4 313.601 63.4667 309.868C62.9334 308.001 61.6 306.668 60.2667 306.668C58.6667 306.668 58.5334 306.268 59.6 305.601C61.3334 304.535 60.5334 291.201 58.8 290.135C58.2667 289.735 56.6667 291.068 55.0667 292.801ZM56.9334 303.468C56.6667 305.201 57.2 307.735 58.1334 308.935C60.4 312.001 60.4 313.335 58.2667 313.335C57.2 313.335 55.7334 311.868 54.9334 310.001C53.2 306.268 54.2667 298.268 56.2667 299.468C57.0667 300.001 57.3334 301.735 56.9334 303.468Z" fill="#FE9F44"/>
<path id="Vector_25" d="M154.8 294.933C151.867 297.999 147.733 309.599 148.667 312.399C148.933 313.333 149.467 315.733 150 317.999C150.8 321.866 150.8 321.866 148.133 319.466C146.533 317.999 145.333 317.599 145.333 318.399C145.333 319.199 146 320.266 146.667 320.666C149.867 322.666 147.6 323.599 142.533 322.266C135.467 320.533 124 323.866 120.133 328.933C116.933 332.933 117.6 334.666 122.133 334.666C124 334.666 127.733 335.866 130.667 337.333C136.933 340.533 136.667 340.533 139.2 337.866C141.067 335.999 141.333 336.133 141.067 339.466C140.8 341.466 141.333 343.333 142.267 343.599C143.067 343.866 145.067 345.333 146.8 346.799C152.267 351.466 157.733 349.333 157.733 342.399C157.867 339.999 157.467 335.866 157.067 333.199L156.267 328.399L162.133 330.399C173.6 334.133 178.933 328.933 173.067 319.599C170.533 315.466 169.333 314.666 166.4 315.066C163.067 315.466 162.8 315.333 164.667 313.333C167.2 310.533 167.2 307.999 164.533 304.133C163.2 302.399 162.267 299.066 162.133 296.799C162 291.599 158.667 290.666 154.8 294.933ZM161.2 306.399C162.267 308.399 162.267 310.133 161.467 311.733C159.867 314.799 162 318.666 165.333 318.666C168.267 318.666 172.667 324.533 171.333 326.666C170.8 327.599 168 327.733 163.867 327.199C154.667 325.999 152.8 327.866 153.867 336.799C154.533 342.133 154.267 343.866 152.667 344.399C150.4 345.333 145.867 341.866 143.6 337.333C142.267 334.933 140.933 334.133 138.4 334.399C136.667 334.533 132.8 333.733 129.867 332.533L124.8 330.399L128 328.533C129.867 327.599 135.2 326.666 140 326.666C151.067 326.533 152.8 324.533 153.467 311.199C154.133 300.666 157.2 294.266 158.8 300.266C159.2 301.999 160.4 304.799 161.2 306.399Z" fill="#FE9F44"/>
<path id="Vector_26" d="M330.667 302.665C329.867 304.132 329.6 305.332 329.867 305.332C330.267 305.332 331.2 304.132 332 302.665C332.8 301.199 333.067 299.999 332.8 299.999C332.4 299.999 331.467 301.199 330.667 302.665Z" fill="#FE9F44"/>
<path id="Vector_27" d="M144.267 311.334C144.267 313.467 144.533 314.267 144.933 312.934C145.2 311.734 145.2 309.867 144.933 308.934C144.533 308.134 144.267 309.067 144.267 311.334Z" fill="#FE9F44"/>
<path id="Vector_28" d="M326.4 308.934C327.333 309.334 328.533 309.201 328.933 308.801C329.467 308.401 328.667 308.001 327.2 308.134C325.733 308.134 325.333 308.534 326.4 308.934Z" fill="#FE9F44"/>
<path id="Vector_29" d="M334.4 310.266C335.333 310.666 336.533 310.533 336.933 310.133C337.467 309.733 336.667 309.333 335.2 309.466C333.733 309.466 333.333 309.866 334.4 310.266Z" fill="#FE9F44"/>
<path id="Vector_30" d="M137.067 318.265C138.667 318.532 141.067 318.532 142.4 318.265C143.6 317.865 142.267 317.598 139.333 317.732C136.4 317.732 135.333 317.998 137.067 318.265Z" fill="#FE9F44"/>
<path id="Vector_31" d="M157.333 331.999C157.333 332.665 158 333.332 158.8 333.332C159.467 333.332 159.733 332.665 159.333 331.999C158.933 331.199 158.267 330.665 157.867 330.665C157.6 330.665 157.333 331.199 157.333 331.999Z" fill="#FE9F44"/>
</g>
</g>
</g>
</svg>
