<svg width="200" height="200" viewBox="0 0 200 200" fill="none" xmlns="http://www.w3.org/2000/svg">
<rect width="200" height="200" fill="#F5F5F5"/>
<g id="Desktop - 132">
<rect width="2816" height="1024" transform="translate(-2101 -54)" fill="white"/>
<g id="T3lSfy01 1">
<g id="Group">
<path id="Vector" d="M11.5778 44.8686C11.1778 44.9798 10.5778 45.3353 10.2445 45.6464C9.71118 46.1798 9.66674 46.3797 9.68896 48.0242C9.71118 49.0464 9.86674 50.1575 10.0667 50.6242C11.3556 53.7575 11.3334 53.6464 11.089 55.0686C10.4667 58.6242 12.2667 62.5131 16.5556 66.7798C18.8445 69.0909 21.1778 70.8686 23.2223 71.8909C23.7112 72.1353 24.2667 72.4464 24.4445 72.5575C25.1556 73.0242 28.4223 74.0909 30.2445 74.4464C31.4223 74.6686 31.5334 74.7575 32.5556 76.1575C33.5779 77.5353 35.9334 79.5575 36.5556 79.5575C36.7112 79.5575 37.1334 79.7131 37.4667 79.8909C37.8223 80.0686 38.289 80.2242 38.489 80.2242C38.689 80.2242 39.4445 80.3797 40.1556 80.5575C40.8445 80.7353 41.8223 80.8909 42.3334 80.8909C44.6667 80.8686 52.0001 82.3353 54.1779 83.2464C54.5779 83.4242 55.0223 83.5575 55.2001 83.5575C56.0667 83.5575 62.4445 86.6686 64.8445 88.2464C65.3778 88.602 65.8445 88.8909 65.9112 88.8909C66.1778 88.8909 71.6001 93.1131 73.6667 94.9131C76.6445 97.5353 77.1112 97.9353 80.0223 100.78C83.3334 103.98 84.6223 105.024 84.9112 104.735C85.0667 104.58 85.0223 104.269 84.8223 103.758C84.6445 103.335 84.3779 102.558 84.2445 102.002C83.489 99.1353 83.1112 98.1131 81.6667 95.1131C80.7556 93.2242 80.689 93.1353 79.3779 91.1575C76.4445 86.7575 71.3334 82.6464 66.2223 80.5797C65.6667 80.3575 64.9334 80.0464 64.5556 79.8909C63.7556 79.5575 62.5556 79.1353 61.6667 78.8909C61.3112 78.7797 60.3112 78.4909 59.4445 78.2242C58.6001 77.9797 57.4445 77.6909 56.889 77.5797C56.3334 77.4686 55.4445 77.2686 54.889 77.1131C53.2445 76.7131 51.0445 76.2464 50.3334 76.1575C49.9779 76.1131 49.1779 75.9353 48.5556 75.7797C47.9556 75.6464 46.8445 75.3575 46.1112 75.1797C39.4223 73.5575 36.2445 71.7798 34.4001 68.602L33.7779 67.5575H31.6667C30.289 67.5575 29.2667 67.4464 28.7334 67.2242C28.3112 67.0464 27.8223 66.8909 27.6445 66.8909C27.3556 66.8909 24.5779 65.602 23.6667 65.0464C21.3556 63.6464 18.9112 61.2686 17.8667 59.402C17.2445 58.3131 17.1334 57.8909 17.1112 56.6242C17.1112 55.802 17.2223 55.0686 17.3334 55.002C17.8223 54.6909 17.5112 53.8909 16.4445 52.7353C15.8223 52.0686 15.1112 51.0464 14.8667 50.4909C14.3112 49.3131 14.5112 48.7131 15.689 48.002C16.289 47.6242 16.8001 47.5575 19.089 47.5575C21.6001 47.5575 22.6223 47.6909 25.7778 48.4909C26.3334 48.6242 27.2223 48.802 27.7778 48.8909C29.0001 49.1131 31.0667 49.5131 32.5556 49.8242C33.1556 49.9575 34.2667 50.1353 35.0001 50.2242C36.2445 50.3797 37.6001 50.5798 41.4445 51.1353C42.3112 51.2464 44.3112 51.4464 45.889 51.5575C47.489 51.6686 49.8223 51.8686 51.1112 51.9798C54.2667 52.2909 63.6445 52.2909 66.9334 51.9798C71.8001 51.5353 74.6223 52.2686 78.2223 54.9131C81.2001 57.0909 83.5334 60.0686 87.0667 66.2242C87.3112 66.6464 88.089 68.0909 88.7778 69.4464C91.089 73.9131 92.7778 77.0909 93.6667 78.6242C94.9112 80.7575 95.3556 81.4686 96.5112 83.002C98.2445 85.3353 100.645 87.6242 102.333 88.5575C103.911 89.4464 106.067 90.2242 106.933 90.2242C107.645 90.2242 107.956 89.8464 107.422 89.6242C106.467 89.2686 103.756 87.202 102.156 85.6242C99.9334 83.4464 98.2001 81.202 96.9334 78.8909C96.4223 77.9575 94.4223 73.9353 94.089 73.1575C93.9334 72.7575 93.6445 72.1131 93.489 71.7131C93.1778 71.0242 92.8001 70.0464 92.089 68.1575C91.889 67.6464 91.6001 66.9131 91.4445 66.5575C91.289 66.1797 90.9779 65.4464 90.7778 64.8909C88.3112 58.6686 85.7334 54.7131 82.5779 52.3353C78.6001 49.3575 72.6667 48.3131 64.889 49.2242C61.089 49.6686 50.1779 49.6686 45.4445 49.2242C40.0001 48.6909 35.6223 48.1131 31.2223 47.2909C30.489 47.1575 29.4001 46.9798 28.7778 46.8909C28.1779 46.802 27.0667 46.602 26.3334 46.4686C24.3334 46.0686 22.1112 45.6464 19.9778 45.2464C17.7556 44.8242 12.6667 44.602 11.5778 44.8686Z" fill="#FE9F44"/>
<path id="Vector_2" d="M144.334 55.5558C141.422 55.8225 139.178 56.4447 136.667 57.6447C133.711 59.0447 132.934 59.7781 129.867 63.8892C127.711 66.8003 123.511 71.1558 120.889 73.2225C119.978 73.9558 119.022 74.7114 118.778 74.9336C118.534 75.1336 117.778 75.7336 117.089 76.2669C113.134 79.2892 110 82.178 107.845 84.8003C106.889 85.9336 106.845 86.2225 107.578 86.2225C108.4 86.2225 112.711 84.1114 116.845 81.7114C117.556 81.3114 118.267 80.9114 118.445 80.8225C118.622 80.7336 119.378 80.3114 120.111 79.8892C122.245 78.6447 127.756 76.0003 129.667 75.2892C131.956 74.4225 135.956 73.5558 137.511 73.5558C138.845 73.578 141.8 74.3336 143.111 75.0225C144.378 75.6892 147.245 78.3558 147.8 79.3781C148.267 80.2447 149.645 83.1114 150.045 84.0003C150.334 84.6447 150.6 84.8669 151.578 85.2003C154.156 86.1114 157.111 88.6003 157.111 89.8225C157.111 90.3336 156.289 90.3558 154.4 89.8447C152.289 89.2892 144.134 89.3114 141.667 89.8669C139.467 90.378 135.645 91.5336 134.889 91.9114C134.578 92.0669 133.578 92.5558 132.667 93.0003C131.756 93.4447 130.711 94.0003 130.334 94.2225C129.978 94.4669 129.445 94.778 129.178 94.9336C128.267 95.4669 125.622 97.2892 125.311 97.6003C125.134 97.7558 124.511 98.2892 123.889 98.778C123.289 99.2669 122.489 99.9336 122.134 100.267C121.467 100.889 121.111 100.911 121.111 100.311C121.111 99.6447 123.734 95.6447 125.178 94.0669C126.022 93.1558 125.8 92.778 124.711 93.2669C120.067 95.2892 117.667 97.0225 115.511 99.8892C113.289 102.867 112.134 106.489 111.845 111.4C111.734 113.267 111.6 113.911 111.045 115.111C108.8 119.956 102.556 124.511 93.4446 127.934C92.9557 128.111 92.3113 128.378 92.0002 128.489C91.6891 128.622 91.1557 128.8 90.778 128.911C90.4224 129 89.4224 129.289 88.5557 129.556C86.4891 130.178 84.5779 130.645 83.2224 130.867C82.6224 130.978 81.7113 131.156 81.2224 131.289C80.7335 131.422 79.1335 131.689 77.6668 131.889C76.2002 132.067 74.3557 132.378 73.5557 132.556C72.7557 132.756 71.9113 132.889 71.6668 132.889C71.4224 132.889 70.778 133.022 70.2224 133.2C69.6668 133.378 68.6224 133.689 67.8891 133.911C66.4224 134.334 65.3335 134.756 64.378 135.245C64.0224 135.422 63.6446 135.556 63.5557 135.556C63.1557 135.556 60.5113 137.222 59.3335 138.2C58.0446 139.289 57.378 140 56.4446 141.311C55.6446 142.467 54.4446 145.045 54.4224 145.734C54.4224 145.934 54.2002 146.556 53.9335 147.111C53.178 148.645 52.5335 148.6 49.978 146.889C46.8891 144.822 47.0891 144.889 43.6002 144.889C40.1557 144.889 39.9557 144.822 39.6891 143.334C39.4224 141.978 38.8668 140.978 38.178 140.556C37.6446 140.245 36.8002 140.111 34.4891 140.022C31.578 139.867 31.4891 139.867 30.978 139.267C30.6668 138.889 30.4446 138.356 30.4446 137.934C30.4224 136.111 29.1335 133.556 28.2224 133.556C28.0224 133.556 27.7557 133.445 27.6224 133.311C27.4002 133.089 26.8446 132.978 23.0002 132.445C19.6446 131.978 18.4224 131.356 18.778 130.222C18.9557 129.645 21.0224 127.822 21.978 127.4C23.8891 126.534 25.8002 125.911 27.4446 125.578C27.9335 125.467 28.778 125.289 29.3335 125.156C31.2224 124.667 34.1557 124.156 40.1113 123.222C44.0668 122.622 46.578 122.2 47.8891 121.956C48.6224 121.822 49.5335 121.667 49.8891 121.622C51.4668 121.422 57.0446 120.311 58.578 119.867C59.2002 119.689 59.8891 119.556 60.1113 119.556C60.3113 119.556 60.9557 119.422 61.5335 119.245C62.0891 119.067 63.1557 118.756 63.8891 118.556C64.6224 118.356 65.5557 118.045 65.9557 117.867C66.3557 117.689 66.8224 117.556 67.0002 117.556C67.178 117.556 67.6446 117.422 68.0446 117.245C68.4446 117.067 69.3335 116.711 70.0002 116.445C71.178 115.978 74.7557 114.245 75.6668 113.711C76.378 113.289 78.2891 111.956 78.8668 111.445C81.8002 108.978 82.8224 107.245 80.4002 108.867C79.0668 109.756 77.2891 110.667 75.2224 111.534C74.2446 111.934 73.1557 112.378 72.778 112.534C71.8668 112.911 70.6891 113.334 69.8891 113.556C69.5335 113.667 68.9335 113.845 68.5557 113.956C68.2002 114.089 67.2891 114.356 66.5557 114.578C65.8224 114.778 64.8224 115.089 64.3335 115.245C63.8224 115.422 63.2224 115.556 63.0002 115.556C62.7557 115.556 62.1113 115.689 61.5557 115.867C60.2002 116.289 58.5557 116.689 57.3335 116.889C56.778 116.978 55.8891 117.156 55.3335 117.289C54.0668 117.6 49.2891 118.556 45.778 119.222C43.578 119.622 41.5113 120.045 39.0002 120.556C38.0224 120.756 36.4668 121.067 35.5557 121.245C34.6446 121.422 33.378 121.734 32.7557 121.911C32.1335 122.089 31.4446 122.222 31.2002 122.222C30.978 122.222 30.3335 122.356 29.778 122.534C29.2224 122.711 28.178 123.022 27.4446 123.222C24.5335 124.045 21.0891 125.378 20.4224 125.934C20.2446 126.089 20.0002 126.222 19.9113 126.222C19.5113 126.222 17.7557 127.778 17.1113 128.711C16.4891 129.6 16.378 129.978 16.3557 131.089C16.3335 132.156 16.4224 132.511 16.778 132.889C17.3113 133.4 19.9557 134.222 21.1113 134.222C22.2668 134.222 25.0891 134.889 26.2224 135.422C27.4668 136.045 28.4224 137.356 28.4446 138.489C28.4446 139.467 29.0224 141.067 29.578 141.6C30.1557 142.156 31.4891 142.667 33.0224 142.867C35.7335 143.267 37.4446 144.467 38.7335 146.889C39.0224 147.445 39.578 148.111 40.0002 148.378C40.6668 148.845 41.0002 148.889 43.4891 148.889C46.578 148.889 47.4668 149.178 47.6891 150.222C48.0446 151.956 49.778 153.756 52.2224 154.934C53.5335 155.578 53.8668 155.645 55.8891 155.645C57.8446 155.667 58.2224 155.6 58.9335 155.156C59.9335 154.534 60.8891 153.334 61.4224 152C64.2002 145.178 66.378 141.889 70.4446 138.356C73.3113 135.867 78.0446 133.645 82.0224 132.889C82.5779 132.8 83.4224 132.6 83.9113 132.467C84.378 132.334 86.3335 132.178 88.2224 132.089C92.9557 131.911 98.8891 131.4 99.6446 131.134C99.978 131 100.534 130.889 100.889 130.889C101.245 130.889 101.934 130.756 102.378 130.6C102.845 130.422 103.778 130.134 104.445 129.911C110.934 127.889 116.467 123.956 120.311 118.622C121.645 116.778 123.334 113.622 124.067 111.667C124.8 109.6 124.956 109.178 125.111 108.334C125.756 105.267 127.378 101.245 128.978 98.6892C129.845 97.3336 131.311 95.7336 132.645 94.7114C136.289 91.9336 140.645 90.9781 148.867 91.178C151.356 91.2447 153.489 91.4003 153.6 91.5114C153.845 91.7558 153.6 91.9558 151.667 93.0003C149.445 94.2003 149.089 94.4225 148.334 94.8892C147.978 95.1336 147.511 95.4003 147.334 95.4892C147.156 95.578 146.378 96.0669 145.6 96.6003C144.822 97.1336 144.134 97.5558 144.045 97.5558C143.756 97.578 140.378 100.334 140.267 100.6C140.045 101.289 141.156 100.822 146.111 98.1114C146.978 97.6447 147.978 97.0669 148.334 96.8669C148.711 96.6447 149.311 96.3114 149.667 96.1114C150.045 95.9336 151.134 95.3336 152.111 94.8003C155.778 92.778 160.956 90.2669 161.245 90.378C161.422 90.4447 161.556 90.6225 161.556 90.8003C161.556 91.1336 162.356 91.9558 163 92.2447C163.245 92.3558 163.756 92.6447 164.111 92.8892C165.822 94.0225 167.734 94.2669 170.534 93.7558C172.667 93.3558 172.645 93.378 171.734 92.6003C170.956 91.9114 169.911 91.3336 168.156 90.578C167.534 90.3114 166.6 90.2225 164.556 90.2225C162.8 90.2225 161.778 90.1336 161.778 90.0003C161.778 89.8669 161.956 89.7114 162.178 89.6447C162.578 89.5336 163.334 89.2225 164.667 88.6225C167.022 87.578 168.756 86.8892 169 86.8892C169.178 86.8892 169.578 86.7558 169.934 86.578C170.578 86.2669 171.645 85.8669 172.778 85.5558C173.156 85.4447 174.156 85.1336 175 84.8892C175.867 84.6225 177.089 84.3114 177.711 84.178C178.756 83.9781 178.978 84.0003 179.711 84.4447C180.4 84.8447 180.889 84.9336 182.445 84.9336C184.178 84.9336 184.534 84.8447 186.067 84.1336C187.845 83.2892 189.934 81.5558 189.667 81.1336C189.422 80.7114 183.378 80.8225 181.978 81.2669C180.645 81.6892 179.2 82.6892 179 83.3336C178.889 83.6892 178.711 83.7336 177.822 83.6447C177.245 83.578 176.045 83.6669 175.111 83.8669C172.089 84.5114 171.622 84.2003 173.711 82.8892C177.334 80.6225 178.222 79.6447 178.534 77.4892C178.667 76.6892 178.622 76.4225 178.378 76.3114C177.889 76.1336 174.889 77.6225 173.756 78.6447C172.245 79.9781 171.734 81.0892 171.822 82.8447C171.889 84.4003 171.578 84.8892 170.489 84.8892C170.2 84.8892 169.756 85.0003 169.489 85.1558C169.222 85.2892 168.711 85.4892 168.334 85.578C166.6 86.0003 163.422 87.2447 160.134 88.778L158.8 89.4003L158.267 88.7558C157 87.2447 156.267 86.5558 155.111 85.8003C153.467 84.7336 153.089 84.5114 152.534 84.2447C151.911 83.9558 151.111 82.9336 151.111 82.4225C151.111 82.0447 150.978 81.6892 150.111 79.6669C149.956 79.2892 149.756 78.8447 149.689 78.6669C149.022 77.0892 146.934 74.5558 145.334 73.3558C144.489 72.7336 143.667 72.2225 143.511 72.2225C143.334 72.2225 143.111 72.1336 142.978 72.0003C142.489 71.5114 139.422 70.8892 137.4 70.8892C134.045 70.8892 128.134 72.3114 124.734 73.9336C124.334 74.1336 123.845 74.2225 123.645 74.1336C123.245 73.9781 123.289 73.9336 124.889 72.2003C125.067 72.0003 125.778 71.2003 126.445 70.4225C134.289 61.3558 137.756 58.8447 143.534 57.9781C146 57.6225 150.845 57.9558 153.667 58.6447C156.978 59.4892 158.711 60.0669 162.289 61.5558C164.4 62.4447 166.4 63.4669 167.956 64.4225C169.067 65.1114 169.111 65.178 168.778 65.5558C168.578 65.778 167.689 66.178 166.822 66.4447C162.867 67.6447 162.156 68.3336 161.845 71.1114C161.734 72.2225 161.6 72.578 160.978 73.2003C159.956 74.2447 157.956 74.8892 155.711 74.8892C153.667 74.8892 153.511 75.2003 155.245 75.8447C156.156 76.2003 156.756 76.2447 158.889 76.1558C160.334 76.0892 161.822 75.8892 162.334 75.7114C163.289 75.3558 164.445 74.2003 164.445 73.6225C164.445 73.0669 165.134 71.3114 165.622 70.6003C166.156 69.8225 167.334 69.0669 168.778 68.6003C169.4 68.4003 170.534 68.0225 171.311 67.778C173.245 67.1558 175.756 65.9558 176.511 65.2892C177.6 64.3336 177.289 63.4447 175.556 62.6447C172.534 61.2225 170.667 60.4003 169.445 59.9336C168.956 59.7558 168.134 59.4447 167.622 59.2447C166.622 58.8669 165.511 58.4669 164.222 58.0003C163.8 57.8669 163.089 57.6447 162.667 57.5558C162.245 57.4669 161.6 57.2892 161.222 57.1558C160.867 57.0447 159.756 56.7781 158.778 56.5781C157.8 56.3558 156.556 56.0892 156 55.9781C153.578 55.4225 148 55.2225 144.334 55.5558Z" fill="#FE9F44"/>
<path id="Vector_3" d="M166.334 79.9326C165.978 80.1326 165.511 80.3771 165.334 80.4882C165.156 80.5771 164.778 80.7549 164.511 80.866C163.689 81.2437 162.045 83.0437 161.578 84.1326C161.089 85.2215 160.978 86.3326 161.311 86.866C161.556 87.2215 161.822 87.0882 164.511 85.266C166.689 83.7771 167.356 83.0437 167.867 81.5549C168.4 80.0215 168.334 79.5549 167.622 79.5549C167.267 79.5549 166.711 79.7326 166.334 79.9326Z" fill="#FE9F44"/>
<path id="Vector_4" d="M170.133 87.0894C169.867 87.5116 170.311 88.0227 171.756 88.9783C173.889 90.4005 175.022 90.7338 177.2 90.5783C179.467 90.4449 180.645 90.2227 180.8 89.9561C181.067 89.5338 178.733 87.9561 176.778 87.2894C175.956 86.9783 174.978 86.8894 172.956 86.8894C171.467 86.8894 170.2 86.9783 170.133 87.0894Z" fill="#FE9F44"/>
</g>
</g>
</g>
</svg>
