<svg width="200" height="200" viewBox="0 0 200 200" fill="none" xmlns="http://www.w3.org/2000/svg">
<rect width="200" height="200" fill="#F5F5F5"/>
<g id="Desktop - 132">
<rect width="2816" height="1024" transform="translate(-2067 -365)" fill="white"/>
<g id="h82vGB01 1">
<g id="Group">
<path id="Vector" d="M100.378 7.37682C98.8222 9.04349 96.4889 12.4657 95.6667 14.3324C93.9111 18.2435 92.8889 22.599 92.3334 28.5101C92.2 29.7546 92.1111 30.0213 91.8222 29.9546C91.6 29.9102 90.7556 28.6435 89.8445 27.0213C88.9778 25.4435 88.1556 24.0657 88.0222 23.9324C87.6222 23.5324 87.1778 24.1546 86.4667 26.1102C85.0222 30.1102 85.0667 34.4657 86.5778 39.9102C87.6222 43.599 87.6889 43.999 87.2889 43.999C87.1111 43.999 86.3778 43.5546 85.6889 42.999C84.9778 42.4435 84.3111 41.999 84.2222 41.999C83.8222 41.999 83.6 42.6657 83.4667 44.3324C83.2445 46.8435 83.6667 49.9102 84.6 52.5546C85.2667 54.4435 85.4 55.1102 85.4222 56.999C85.4889 59.399 85.8667 60.6657 87.1334 62.7324C87.8667 63.9324 87.9333 64.2213 87.4222 64.2213C86.6445 64.2213 74.1111 56.1768 69.6667 52.8213C57.8 43.8435 50.3334 34.0213 44.8889 20.2213C44.4667 19.1768 44.0445 18.2435 43.9556 18.1102C43.6222 17.7324 43.2222 18.4879 42.4889 20.7768C40.2 28.0879 39.2445 33.0879 39.2667 37.7768C39.2667 39.999 39.7778 43.5768 40.1778 44.399C40.2889 44.599 40.4445 45.1102 40.5111 45.4879C40.6889 46.3768 40.2667 46.4657 39.2222 45.7768C38.0222 44.9768 37.8445 45.1324 37.6667 47.0435C37.3334 50.4657 37.8445 54.5546 39 57.7768C39.8222 60.0213 42.0445 63.9768 43.7778 66.2213C44.1111 66.6435 44.4445 67.2213 44.5334 67.4879C44.6889 67.9546 44.6222 67.999 43.9778 67.999C43.6 67.999 42.6445 67.8879 41.8445 67.7324C40.2667 67.4435 39.8 67.6213 40.1778 68.3546C40.2889 68.599 40.7778 69.5324 41.2222 70.4435C42.9111 73.8435 45.1778 76.9324 48.4889 80.3546C49.4445 81.3546 50.2222 82.3324 50.2222 82.5102C50.2222 82.799 49.8889 82.8879 48.4 82.9324C46.6667 82.999 46.5556 83.0213 46.4889 83.5102C46.3556 84.3546 48.9778 88.7324 51.3778 91.7102C52.8667 93.5546 54.8222 95.3324 57.1556 96.999C58.0445 97.6213 58.8 98.2879 58.8445 98.4879C58.9111 98.8879 57.5334 99.1102 54.8445 99.1102C53.7778 99.1102 53.0667 99.1991 52.9778 99.3768C52.6445 99.9102 56.8222 102.955 60.6667 104.977C63.5334 106.466 63.5778 106.577 61.7778 107.355C60.2445 108.021 59.9778 108.377 60.6445 108.91C61.3556 109.488 63.7556 110.199 65.6 110.377C67.5111 110.555 67.7111 110.866 66.5778 111.955C65.7556 112.71 65.7556 112.732 66.1556 113.132C66.8889 113.866 69.0667 114.488 71.5556 114.621C74.2889 114.799 74.3334 114.843 73.4222 116.888C73.0889 117.621 72.8889 118.31 72.9778 118.377C73.0667 118.466 73.7556 118.31 74.5111 118.043C75.2667 117.777 76.0222 117.555 76.2 117.555C76.5556 117.555 76.4445 118.51 75.8889 120.066C75.3111 121.666 75.6 121.777 77.7556 120.688C78.7556 120.177 79.7111 119.777 79.9111 119.777C80.4667 119.777 80.5111 120.355 80.0445 121.71C79.7334 122.577 79.6667 123.088 79.8222 123.266C80.1778 123.688 81.6222 123.043 83.5111 121.577C85.5334 120.021 86.3111 119.621 87.5334 119.421C89.0222 119.177 88.7334 119.888 86.5111 121.932C78.1111 129.621 71.6445 133.31 63.2445 135.221C62.4 135.399 60 135.71 57.9111 135.91C54.4 136.243 53.7556 136.221 49.5556 135.888C47.0445 135.688 44.7556 135.488 44.4445 135.488C43.8889 135.443 43.8889 135.466 43.8222 137.31C43.6222 143.266 46.6445 149.821 51.2222 153.288C51.9556 153.843 52.6445 154.355 52.7334 154.443C52.8445 154.532 52.8 154.821 52.6445 155.043C52.2445 155.688 52.4667 156.043 54.1556 157.443C58.8667 161.332 62.5778 162.866 67.3334 162.888H69.9111L70.7334 163.888C71.7778 165.132 73.1111 166.044 74.6445 166.51C76.3556 167.044 77 166.999 77.5111 166.288L77.9556 165.688L79.4 166.31C80.2889 166.688 81.1334 166.888 81.6 166.844C82.2445 166.777 82.3334 166.688 82.4 166.11C82.6 163.732 83.2445 159.888 83.8889 157.221C85.2889 151.51 86.4667 147.221 86.6667 147.021C86.7778 146.91 88.9778 146.843 91.8222 146.866C98.9778 146.932 102.822 146.288 108 144.155C114.644 141.399 120.044 135.888 123.622 128.199C125.489 124.177 126.422 121.555 128.333 114.777C129.867 109.399 130.933 106.132 131.8 104.266C132.156 103.488 132.444 102.799 132.444 102.755C132.444 102.466 134.311 99.5324 135.022 98.6879C135.733 97.8657 138.044 96.4435 138.667 96.4435C139.044 96.4435 138.933 97.1324 138.178 99.2213C136.889 102.91 136.156 106.288 135.244 112.643C135.067 113.888 135.667 114.066 137.333 113.266L138.333 112.777L138.489 111.11C139.133 104.599 139.267 103.755 140.267 100.221C140.889 97.9768 142.133 95.1324 142.778 94.4435C143.044 94.1324 143.356 93.5546 143.444 93.1324C143.711 91.9324 146.178 88.2213 146.733 88.2213C146.889 88.2213 147.356 88.7324 147.778 89.3546C150.756 93.7324 155.556 95.4213 161.889 94.3324C164.378 93.8879 164.756 93.6879 164.556 92.9324C164.333 92.0213 162.467 89.3768 160.978 87.8435C158.6 85.4213 156.111 84.6657 152.267 85.2435C151.089 85.4213 149.978 85.599 149.822 85.6657C149.667 85.7102 149.489 85.6213 149.4 85.4213C149.311 85.1991 149.622 84.7546 150.244 84.1768C151.933 82.5768 154.467 80.6657 154.844 80.6657C155.044 80.6657 155.978 81.3768 156.889 82.2213C162.111 87.1324 165.467 87.7768 171.356 85.0657C172.289 84.6435 173.089 84.1546 173.156 83.9768C173.356 83.4213 172.956 82.7324 171.467 81.1546C169.133 78.6879 166.711 77.6435 162.933 77.4879C161.8 77.4435 160.822 77.3324 160.756 77.2657C160.689 77.2213 160.889 76.9546 161.2 76.7324C161.667 76.3546 162.244 76.2657 165.556 76.1546C172.778 75.8657 176.711 74.6657 180.178 71.6879C181.844 70.2435 183.444 68.3546 183.444 67.8657C183.444 67.5768 182.956 67.2657 181.756 66.7324C179.378 65.7102 177.756 65.3102 175.422 65.1768C170.133 64.8657 166.289 67.4213 163.244 73.3324C162.4 74.9768 162.156 75.1768 160.222 75.999C159.311 76.3768 157.622 77.1768 156.467 77.799C154.556 78.799 153.778 79.0879 153.778 78.7768C153.778 78.7102 154.289 77.9546 154.911 77.0879C156.867 74.4213 157.2 73.5324 157.2 71.2213C157.2 69.7324 157.067 68.8657 156.689 67.7768C155.889 65.5102 155.089 63.999 154.667 63.999C154.022 63.999 150.733 66.599 149.444 68.1324C147.4 70.5546 146.622 72.4657 146.644 75.0879C146.644 77.0435 147.222 78.7324 148.533 80.6879C148.978 81.3324 149.333 81.999 149.333 82.1324C149.333 82.2657 148.4 83.3102 147.267 84.4657C145.156 86.599 143.044 89.2657 141.733 91.4657C140.911 92.8213 140.756 92.8657 138.644 92.2879C137.156 91.8879 137.044 91.7546 136.689 90.0213C136.156 87.5102 134.778 85.7768 132.444 84.6879C131.378 84.1768 130.933 84.1102 128.889 84.1102C126.356 84.1102 124.733 84.5324 122.178 85.799C120.089 86.8435 119.822 86.6435 120.8 84.799C125.733 75.5324 126.756 64.9324 123.667 55.1546C121.822 49.2879 119.378 44.6657 112.733 34.4435C109.6 29.599 108.689 28.0657 107.044 24.7768C104.489 19.6657 103.044 14.2435 102.556 7.93237C102.378 5.53238 102.178 5.48793 100.378 7.37682Z" fill="#FE9F44"/>
</g>
</g>
</g>
</svg>
